<?xml version="1.0" encoding="UTF-8" standalone="no"?>
<!-- Created with Inkscape (http://www.inkscape.org/) -->

<svg
   xmlns:dc="http://purl.org/dc/elements/1.1/"
   xmlns:cc="http://creativecommons.org/ns#"
   xmlns:rdf="http://www.w3.org/1999/02/22-rdf-syntax-ns#"
   xmlns:svg="http://www.w3.org/2000/svg"
   xmlns="http://www.w3.org/2000/svg"
   xmlns:sodipodi="http://sodipodi.sourceforge.net/DTD/sodipodi-0.dtd"
   xmlns:inkscape="http://www.inkscape.org/namespaces/inkscape"
   width="120"
   height="200"
   viewBox="0 0 120 200"
   id="svg2"
   version="1.1"
   inkscape:version="0.92.2 2405546, 2018-03-11"
   sodipodi:docname="notFound.svg"
   inkscape:export-filename="F:\xampp\htdocs\Peer Support Site\img\notFound.png"
   inkscape:export-xdpi="90.099998"
   inkscape:export-ydpi="90.099998">
  <defs
     id="defs4" />
  <sodipodi:namedview
     id="base"
     pagecolor="#ffffff"
     bordercolor="#666666"
     borderopacity="1.0"
     inkscape:pageopacity="0.0"
     inkscape:pageshadow="2"
     inkscape:zoom="2.8"
     inkscape:cx="19.279136"
     inkscape:cy="63.757325"
     inkscape:document-units="px"
     inkscape:current-layer="g4266"
     showgrid="false"
     inkscape:window-width="1920"
     inkscape:window-height="1008"
     inkscape:window-x="0"
     inkscape:window-y="27"
     inkscape:window-maximized="1"
     units="px" />
  <metadata
     id="metadata7">
    <rdf:RDF>
      <cc:Work
         rdf:about="">
        <dc:format>image/svg+xml</dc:format>
        <dc:type
           rdf:resource="http://purl.org/dc/dcmitype/StillImage" />
        <dc:title></dc:title>
      </cc:Work>
    </rdf:RDF>
  </metadata>
  <g
     inkscape:label="Layer 1"
     inkscape:groupmode="layer"
     id="layer1"
     transform="translate(0,-852.36218)">
    <g
       id="g4266"
       style="fill:none;fill-opacity:1">
      <g
         id="g4286"
         transform="matrix(0.40718047,0,0,0.40803584,-111.16046,725.14927)"
         inkscape:export-xdpi="90.099998"
         inkscape:export-ydpi="90.099998">
        <path
           sodipodi:nodetypes="csssccccc"
           inkscape:connector-curvature="0"
           d="m -577.69276,503.93552 c -24.72929,18.42056 -42.81183,47.58963 -46.58907,81.46985 -7.82082,70.14935 47.57472,116.37484 121.79212,128.63579 74.21741,12.26095 139.15208,-14.08563 146.97289,-84.23498 3.9104,-35.07468 -7.59066,-69.3137 -29.35327,-96.43567 -26.25678,-37.68418 -21.48005,-63.31203 -24.11266,-101.81418 1.44211,-56.17629 -34.11558,-74.72393 -59.64216,-79.72303 -26.98576,-3.98967 -58.80717,4.96806 -71.45379,55.88933 -5.18899,38.36478 -11.00452,70.94736 -37.61406,96.21289 z"
           style="opacity:1;fill:#9bc53d;fill-opacity:1;stroke:#9bc53d;stroke-width:2.45517802;stroke-opacity:1"
           transform="matrix(-0.9864269,-0.16420103,-0.10997478,0.99393438,0,0)"
           id="path4192-1" />
        <path
           sodipodi:nodetypes="sasssss"
           inkscape:connector-curvature="0"
           id="path4281"
           d="m 460.13131,324.64534 c -15.45005,6.64353 -24.04942,24.33589 -31.49596,39.41534 -10.02756,20.3061 -13.70868,42.92143 -16.36118,65.9418 -0.53753,4.66511 11.88893,11.83196 12.14286,7.14286 1.48794,-27.47667 9.07609,-50.34174 16.12928,-67.81946 8.64053,-21.41115 18.40449,-23.93461 27.085,-33.25197 9.21488,-9.89093 2.87462,-15.88967 -7.5,-11.42857 z"
           style="fill:#382f2e;fill-opacity:1;fill-rule:evenodd;stroke:#382f2e;stroke-width:2.45333791px;stroke-linecap:butt;stroke-linejoin:miter;stroke-opacity:1" />
        <path
           sodipodi:nodetypes="sssssssss"
           inkscape:connector-curvature="0"
           id="path4283"
           d="m 533.09654,448.17494 c -14.94812,12.53519 -24.45571,26.8462 -63.41306,26.8462 -38.95735,0 -58.55479,-15.87699 -58.55479,-42.63992 0,-13.89608 8.11149,-29.9193 22.15443,-35.26216 6.90678,-2.62779 16.39669,-4.68523 23.51443,-4.71219 11.70801,-0.0444 18.00811,0.89028 29.72794,7.35545 10.00422,5.51875 18.6635,10.20221 28.21264,12.96161 9.83459,2.84189 35.20984,-0.95379 41.71159,-6.34044 15.53036,-12.86678 -12.99132,33.10219 -23.35318,41.79145 z"
           style="opacity:1;fill:#71902d;fill-opacity:1;stroke:#71902d;stroke-width:2.45333791;stroke-opacity:1" />
      </g>
      <path
         style="fill:#000000;stroke:#000000;stroke-width:1px;stroke-linecap:butt;stroke-linejoin:miter;stroke-opacity:1"
         d="m 20.027545,1025.7433 c -38.412844,21.6055 -34.896426,27.0598 -27.2342249,72.0278 l -11.6856011,0.5559 c -10.768358,0.036 -7.036597,9.2281 -0.846814,9.2745 9.164832,0.3477 14.8026663,-1.7818 18.89176187,-5.6739 1.78922791,-33.2413 -21.73121587,-47.7282 27.14184013,-70.4135 7.305251,-3.6788 0.240693,-8.6401 -6.266962,-5.7708 z"
         id="path3745"
         inkscape:connector-curvature="0"
         sodipodi:nodetypes="ccccccc" />
      <path
         style="fill:#000000;fill-opacity:1;stroke:#000000;stroke-width:1px;stroke-linecap:butt;stroke-linejoin:miter;stroke-opacity:1"
         d="m 74.278231,1036.9351 c -5.343323,43.7469 -3.02598,44.188 37.744169,64.6483 l -6.47335,9.7447 c -6.349137,8.6975 3.26769,11.1352 6.9712,6.1755 5.70832,-7.1785 7.33175,-12.9823 6.61766,-18.5823 -25.026104,-21.3857 -44.322834,-9.5407 -37.129496,-61.0923 1.362652,-8.065 -6.187648,-7.8367 -7.730183,-0.8939 z"
         id="path3745-3"
         inkscape:connector-curvature="0"
         sodipodi:nodetypes="ccccccc" />
      <path
         style="fill:#000000;stroke:#000000;stroke-width:1px;stroke-linecap:butt;stroke-linejoin:miter;stroke-opacity:1"
         d="m 101.3049,994.79494 c 29.3986,13.94856 40.33098,24.81116 42.80548,48.63816 -3.412,1.3991 -4.12388,1.8553 -4.93718,1.8946 -1.94396,2.2424 0.66364,3.328 1.45079,3.4186 2.49244,0.6934 4.09636,-0.4078 5.65037,-1.6097 -0.75577,2.2388 0.68964,3.6164 2.14144,4.9911 1.21384,0.7785 2.48994,2.0437 4.12052,-0.522 0.70484,-2.1904 -0.66087,-4.1591 -2.0223,-6.1283 3.10586,-0.048 5.13332,-0.8269 6.74505,-1.8876 1.7314,-1.7739 0.71342,-4.159 -1.94419,-3.5263 l -5.34985,1.4169 c -5.5283,-31.9609 -16.05707,-36.7085 -45.88694,-52.28365 -3.87494,0.0141 -6.401902,0.87429 -2.77319,5.59819 z"
         id="path3762"
         inkscape:connector-curvature="0"
         sodipodi:nodetypes="ccccccccccccc" />
      <path
         style="fill:#000000;fill-opacity:1;stroke:#000000;stroke-width:1px;stroke-linecap:butt;stroke-linejoin:miter;stroke-opacity:1"
         d="m 14.5795,983.44316 c -6.2509782,0.90516 -11.7459562,1.97639 -16.6544542,2.98004 -5.905662,1.20755 -10.9623598,2.31726 -15.4653468,2.92219 -11.035903,1.48256 -18.746004,-0.0668 -27.476587,-10.63871 2.066581,-3.0542 2.406729,-3.8283 3.06216,-4.31146 0.377172,-2.94362 -2.395302,-2.40367 -3.100932,-2.04336 -2.459427,0.80277 -3.185242,2.60786 -3.813882,4.46907 -0.61031,-2.28276 -2.576552,-2.62944 -4.546743,-2.97039 -1.44175,0.024 -3.204988,-0.32308 -3.142132,2.7163 0.625954,2.2143 2.853246,3.09739 5.077265,3.98326 -2.559643,1.75989 -3.816663,3.53107 -4.57148,5.30667 -0.459482,2.43593 1.708824,3.85831 3.571483,1.85985 l 3.670373,-4.14208 c 22.300403,23.55306 30.717023,9.61332 64.180771,6.06584 3.218909,-2.15729 4.84686,-4.27277 -0.790495,-6.19722 z"
         id="path3762-6"
         inkscape:connector-curvature="0"
         sodipodi:nodetypes="csscccccccccccc" />
      <circle
         style="fill:#000000;stroke:none;stroke-width:66.07402039;stroke-linejoin:round;stroke-miterlimit:0;stroke-dasharray:none;stroke-opacity:1"
         id="path3800"
         cx="48.356522"
         cy="923.59717"
         r="4.4148932" />
      <circle
         style="fill:#000000;fill-opacity:1;stroke:none;stroke-width:66.07402039;stroke-linejoin:round;stroke-miterlimit:0;stroke-dasharray:none;stroke-opacity:1"
         id="path3800-5"
         cx="72.410522"
         cy="926.4765"
         r="4.4148932" />
      <path
         style="fill:#000000;stroke:#000000;stroke-width:0.39189744px;stroke-linecap:butt;stroke-linejoin:miter;stroke-opacity:1"
         d="m 45.895674,947.58153 c 1.536564,0.10479 15.593746,3.1592 24.842047,-2.07459 3.125242,-3.59422 5.179245,-0.34009 -1.041206,4.70923 -9.889114,5.35651 -18.38121,3.21076 -27.114254,2.35895 -3.833863,0.0318 -0.715265,-6.49157 3.313413,-4.99359 z"
         id="path4624"
         inkscape:connector-curvature="0"
         sodipodi:nodetypes="ccccc" />
    </g>
  </g>
</svg>
